<mxfile host="app.diagrams.net" agent="Mozilla/5.0 (Windows NT 10.0; Win64; x64) AppleWebKit/537.36 (KHTML, like Gecko) Chrome/137.0.0.0 Safari/537.36" version="26.2.15">
  <diagram name="Page-1" id="q2qK3-SRg88uC1y-vDrQ">
    <mxGraphModel dx="2916" dy="1111" grid="1" gridSize="10" guides="1" tooltips="1" connect="1" arrows="1" fold="1" page="1" pageScale="1" pageWidth="850" pageHeight="1100" math="0" shadow="0">
      <root>
        <mxCell id="0" />
        <mxCell id="1" parent="0" />
        <mxCell id="4VESijn2sR6YKoD569hc-33" value="" style="rounded=0;whiteSpace=wrap;html=1;" vertex="1" parent="1">
          <mxGeometry x="970" y="227.5" width="460" height="250" as="geometry" />
        </mxCell>
        <mxCell id="4VESijn2sR6YKoD569hc-7" value="" style="rounded=0;whiteSpace=wrap;html=1;" vertex="1" parent="1">
          <mxGeometry x="-210" y="230" width="1100" height="245" as="geometry" />
        </mxCell>
        <mxCell id="4VESijn2sR6YKoD569hc-3" value="" style="edgeStyle=orthogonalEdgeStyle;rounded=0;orthogonalLoop=1;jettySize=auto;html=1;" edge="1" parent="1" source="4VESijn2sR6YKoD569hc-1" target="4VESijn2sR6YKoD569hc-2">
          <mxGeometry relative="1" as="geometry" />
        </mxCell>
        <mxCell id="4VESijn2sR6YKoD569hc-1" value="Developer" style="shape=umlActor;verticalLabelPosition=bottom;verticalAlign=top;html=1;outlineConnect=0;" vertex="1" parent="1">
          <mxGeometry x="-510" y="297.5" width="20" height="40" as="geometry" />
        </mxCell>
        <mxCell id="4VESijn2sR6YKoD569hc-10" value="" style="edgeStyle=orthogonalEdgeStyle;rounded=0;orthogonalLoop=1;jettySize=auto;html=1;entryX=0;entryY=0.5;entryDx=0;entryDy=0;" edge="1" parent="1" source="4VESijn2sR6YKoD569hc-2" target="4VESijn2sR6YKoD569hc-14">
          <mxGeometry relative="1" as="geometry" />
        </mxCell>
        <mxCell id="4VESijn2sR6YKoD569hc-2" value="" style="shape=image;verticalLabelPosition=bottom;labelBackgroundColor=default;verticalAlign=top;aspect=fixed;imageAspect=0;image=https://w7.pngwing.com/pngs/476/908/png-transparent-github-repository-version-control-source-code-network-node.png;" vertex="1" parent="1">
          <mxGeometry x="-370" y="292.5" width="50" height="50" as="geometry" />
        </mxCell>
        <mxCell id="4VESijn2sR6YKoD569hc-4" value="commit code" style="text;html=1;align=center;verticalAlign=middle;whiteSpace=wrap;rounded=0;" vertex="1" parent="1">
          <mxGeometry x="-475" y="290" width="100" height="30" as="geometry" />
        </mxCell>
        <mxCell id="4VESijn2sR6YKoD569hc-6" value="Git repository" style="text;html=1;align=center;verticalAlign=middle;whiteSpace=wrap;rounded=0;" vertex="1" parent="1">
          <mxGeometry x="-375" y="345" width="60" height="30" as="geometry" />
        </mxCell>
        <mxCell id="4VESijn2sR6YKoD569hc-9" value="&lt;font style=&quot;font-size: 14px;&quot;&gt;CI&lt;/font&gt;" style="text;html=1;align=center;verticalAlign=middle;whiteSpace=wrap;rounded=0;" vertex="1" parent="1">
          <mxGeometry x="-220" y="230" width="60" height="30" as="geometry" />
        </mxCell>
        <mxCell id="4VESijn2sR6YKoD569hc-13" value="" style="rounded=0;whiteSpace=wrap;html=1;" vertex="1" parent="1">
          <mxGeometry x="-200" y="290" width="100" height="55" as="geometry" />
        </mxCell>
        <mxCell id="4VESijn2sR6YKoD569hc-24" value="" style="edgeStyle=orthogonalEdgeStyle;rounded=0;orthogonalLoop=1;jettySize=auto;html=1;" edge="1" parent="1" source="4VESijn2sR6YKoD569hc-14" target="4VESijn2sR6YKoD569hc-23">
          <mxGeometry relative="1" as="geometry" />
        </mxCell>
        <mxCell id="4VESijn2sR6YKoD569hc-14" value="checkout code" style="text;html=1;align=center;verticalAlign=middle;whiteSpace=wrap;rounded=0;" vertex="1" parent="1">
          <mxGeometry x="-195" y="302.5" width="90" height="30" as="geometry" />
        </mxCell>
        <mxCell id="4VESijn2sR6YKoD569hc-26" value="" style="edgeStyle=orthogonalEdgeStyle;rounded=0;orthogonalLoop=1;jettySize=auto;html=1;" edge="1" parent="1" source="4VESijn2sR6YKoD569hc-17" target="4VESijn2sR6YKoD569hc-21">
          <mxGeometry relative="1" as="geometry" />
        </mxCell>
        <mxCell id="4VESijn2sR6YKoD569hc-17" value="Package vulnerabilities check" style="rounded=0;whiteSpace=wrap;html=1;" vertex="1" parent="1">
          <mxGeometry x="220" y="290" width="100" height="55" as="geometry" />
        </mxCell>
        <mxCell id="4VESijn2sR6YKoD569hc-20" value="" style="edgeStyle=orthogonalEdgeStyle;rounded=0;orthogonalLoop=1;jettySize=auto;html=1;" edge="1" parent="1" source="4VESijn2sR6YKoD569hc-18" target="4VESijn2sR6YKoD569hc-17">
          <mxGeometry relative="1" as="geometry" />
        </mxCell>
        <mxCell id="4VESijn2sR6YKoD569hc-18" value="Code quality check" style="rounded=0;whiteSpace=wrap;html=1;" vertex="1" parent="1">
          <mxGeometry x="80" y="290" width="100" height="55" as="geometry" />
        </mxCell>
        <mxCell id="4VESijn2sR6YKoD569hc-27" value="" style="edgeStyle=orthogonalEdgeStyle;rounded=0;orthogonalLoop=1;jettySize=auto;html=1;" edge="1" parent="1" source="4VESijn2sR6YKoD569hc-21" target="4VESijn2sR6YKoD569hc-22">
          <mxGeometry relative="1" as="geometry" />
        </mxCell>
        <mxCell id="4VESijn2sR6YKoD569hc-21" value="Unit test" style="rounded=0;whiteSpace=wrap;html=1;" vertex="1" parent="1">
          <mxGeometry x="360" y="290" width="100" height="55" as="geometry" />
        </mxCell>
        <mxCell id="4VESijn2sR6YKoD569hc-30" value="" style="edgeStyle=orthogonalEdgeStyle;rounded=0;orthogonalLoop=1;jettySize=auto;html=1;" edge="1" parent="1" source="4VESijn2sR6YKoD569hc-22" target="4VESijn2sR6YKoD569hc-28">
          <mxGeometry relative="1" as="geometry" />
        </mxCell>
        <mxCell id="4VESijn2sR6YKoD569hc-22" value="Code security scan" style="rounded=0;whiteSpace=wrap;html=1;" vertex="1" parent="1">
          <mxGeometry x="500" y="290" width="100" height="55" as="geometry" />
        </mxCell>
        <mxCell id="4VESijn2sR6YKoD569hc-25" value="" style="edgeStyle=orthogonalEdgeStyle;rounded=0;orthogonalLoop=1;jettySize=auto;html=1;" edge="1" parent="1" source="4VESijn2sR6YKoD569hc-23" target="4VESijn2sR6YKoD569hc-18">
          <mxGeometry relative="1" as="geometry" />
        </mxCell>
        <mxCell id="4VESijn2sR6YKoD569hc-23" value="Dependencies cache" style="rounded=0;whiteSpace=wrap;html=1;" vertex="1" parent="1">
          <mxGeometry x="-60" y="290" width="100" height="55" as="geometry" />
        </mxCell>
        <mxCell id="4VESijn2sR6YKoD569hc-31" value="" style="edgeStyle=orthogonalEdgeStyle;rounded=0;orthogonalLoop=1;jettySize=auto;html=1;" edge="1" parent="1" source="4VESijn2sR6YKoD569hc-28" target="4VESijn2sR6YKoD569hc-29">
          <mxGeometry relative="1" as="geometry" />
        </mxCell>
        <mxCell id="4VESijn2sR6YKoD569hc-28" value="Build artifact" style="rounded=0;whiteSpace=wrap;html=1;" vertex="1" parent="1">
          <mxGeometry x="640" y="290" width="100" height="55" as="geometry" />
        </mxCell>
        <mxCell id="4VESijn2sR6YKoD569hc-35" value="" style="edgeStyle=orthogonalEdgeStyle;rounded=0;orthogonalLoop=1;jettySize=auto;html=1;entryX=0;entryY=0.5;entryDx=0;entryDy=0;" edge="1" parent="1" source="4VESijn2sR6YKoD569hc-29" target="4VESijn2sR6YKoD569hc-41">
          <mxGeometry relative="1" as="geometry" />
        </mxCell>
        <mxCell id="4VESijn2sR6YKoD569hc-29" value="Push to artifact registry" style="rounded=0;whiteSpace=wrap;html=1;" vertex="1" parent="1">
          <mxGeometry x="780" y="290" width="100" height="55" as="geometry" />
        </mxCell>
        <mxCell id="4VESijn2sR6YKoD569hc-34" value="&lt;font style=&quot;font-size: 14px;&quot;&gt;CD&lt;/font&gt;" style="text;html=1;align=center;verticalAlign=middle;whiteSpace=wrap;rounded=0;" vertex="1" parent="1">
          <mxGeometry x="960" y="227.5" width="60" height="30" as="geometry" />
        </mxCell>
        <mxCell id="4VESijn2sR6YKoD569hc-38" value="" style="edgeStyle=orthogonalEdgeStyle;rounded=0;orthogonalLoop=1;jettySize=auto;html=1;" edge="1" parent="1" source="4VESijn2sR6YKoD569hc-36" target="4VESijn2sR6YKoD569hc-37">
          <mxGeometry relative="1" as="geometry" />
        </mxCell>
        <mxCell id="4VESijn2sR6YKoD569hc-36" value="Build docker image" style="rounded=0;whiteSpace=wrap;html=1;" vertex="1" parent="1">
          <mxGeometry x="640" y="380" width="100" height="55" as="geometry" />
        </mxCell>
        <mxCell id="4VESijn2sR6YKoD569hc-46" value="" style="edgeStyle=orthogonalEdgeStyle;rounded=0;orthogonalLoop=1;jettySize=auto;html=1;entryX=0;entryY=0.5;entryDx=0;entryDy=0;" edge="1" parent="1" source="4VESijn2sR6YKoD569hc-37" target="4VESijn2sR6YKoD569hc-44">
          <mxGeometry relative="1" as="geometry" />
        </mxCell>
        <mxCell id="4VESijn2sR6YKoD569hc-37" value="Push to docket registry" style="rounded=0;whiteSpace=wrap;html=1;" vertex="1" parent="1">
          <mxGeometry x="780" y="380" width="100" height="55" as="geometry" />
        </mxCell>
        <mxCell id="4VESijn2sR6YKoD569hc-39" value="" style="endArrow=classic;html=1;rounded=0;entryX=0;entryY=0.5;entryDx=0;entryDy=0;exitX=1;exitY=0.5;exitDx=0;exitDy=0;" edge="1" parent="1" source="4VESijn2sR6YKoD569hc-22" target="4VESijn2sR6YKoD569hc-36">
          <mxGeometry width="50" height="50" relative="1" as="geometry">
            <mxPoint x="400" y="600" as="sourcePoint" />
            <mxPoint x="450" y="550" as="targetPoint" />
            <Array as="points">
              <mxPoint x="600" y="408" />
            </Array>
          </mxGeometry>
        </mxCell>
        <mxCell id="4VESijn2sR6YKoD569hc-45" value="" style="edgeStyle=orthogonalEdgeStyle;rounded=0;orthogonalLoop=1;jettySize=auto;html=1;" edge="1" parent="1" source="4VESijn2sR6YKoD569hc-41" target="4VESijn2sR6YKoD569hc-42">
          <mxGeometry relative="1" as="geometry" />
        </mxCell>
        <mxCell id="4VESijn2sR6YKoD569hc-41" value="Dowload Artifact" style="rounded=0;whiteSpace=wrap;html=1;" vertex="1" parent="1">
          <mxGeometry x="1000" y="291.25" width="100" height="52.5" as="geometry" />
        </mxCell>
        <mxCell id="4VESijn2sR6YKoD569hc-50" value="" style="edgeStyle=orthogonalEdgeStyle;rounded=0;orthogonalLoop=1;jettySize=auto;html=1;" edge="1" parent="1" source="4VESijn2sR6YKoD569hc-42" target="4VESijn2sR6YKoD569hc-49">
          <mxGeometry relative="1" as="geometry" />
        </mxCell>
        <mxCell id="4VESijn2sR6YKoD569hc-42" value="Deploy to IIS" style="rounded=0;whiteSpace=wrap;html=1;" vertex="1" parent="1">
          <mxGeometry x="1160" y="290" width="100" height="55" as="geometry" />
        </mxCell>
        <mxCell id="4VESijn2sR6YKoD569hc-51" value="" style="edgeStyle=orthogonalEdgeStyle;rounded=0;orthogonalLoop=1;jettySize=auto;html=1;" edge="1" parent="1" source="4VESijn2sR6YKoD569hc-43" target="4VESijn2sR6YKoD569hc-49">
          <mxGeometry relative="1" as="geometry" />
        </mxCell>
        <mxCell id="4VESijn2sR6YKoD569hc-43" value="Deploy to docker container" style="rounded=0;whiteSpace=wrap;html=1;" vertex="1" parent="1">
          <mxGeometry x="1160" y="380" width="100" height="55" as="geometry" />
        </mxCell>
        <mxCell id="4VESijn2sR6YKoD569hc-48" value="" style="edgeStyle=orthogonalEdgeStyle;rounded=0;orthogonalLoop=1;jettySize=auto;html=1;" edge="1" parent="1" source="4VESijn2sR6YKoD569hc-44" target="4VESijn2sR6YKoD569hc-43">
          <mxGeometry relative="1" as="geometry" />
        </mxCell>
        <mxCell id="4VESijn2sR6YKoD569hc-44" value="Pull docker image" style="rounded=0;whiteSpace=wrap;html=1;" vertex="1" parent="1">
          <mxGeometry x="1000" y="380" width="100" height="55" as="geometry" />
        </mxCell>
        <mxCell id="4VESijn2sR6YKoD569hc-49" value="Deploy monitoring service" style="rounded=0;whiteSpace=wrap;html=1;" vertex="1" parent="1">
          <mxGeometry x="1320" y="325" width="100" height="55" as="geometry" />
        </mxCell>
        <mxCell id="4VESijn2sR6YKoD569hc-53" value="" style="shape=image;verticalLabelPosition=bottom;labelBackgroundColor=default;verticalAlign=top;aspect=fixed;imageAspect=0;image=https://static-00.iconduck.com/assets.00/github-icon-256x256-sgutmi4g.png;" vertex="1" parent="1">
          <mxGeometry x="670" y="20" width="80" height="80" as="geometry" />
        </mxCell>
        <mxCell id="4VESijn2sR6YKoD569hc-56" value="GithubAction" style="text;html=1;align=center;verticalAlign=middle;resizable=0;points=[];autosize=1;strokeColor=none;fillColor=none;" vertex="1" parent="1">
          <mxGeometry x="665" y="100" width="90" height="30" as="geometry" />
        </mxCell>
        <mxCell id="4VESijn2sR6YKoD569hc-57" value="" style="endArrow=classic;html=1;rounded=0;exitX=-0.05;exitY=0.633;exitDx=0;exitDy=0;exitPerimeter=0;entryX=0.5;entryY=0;entryDx=0;entryDy=0;" edge="1" parent="1" source="4VESijn2sR6YKoD569hc-53" target="4VESijn2sR6YKoD569hc-7">
          <mxGeometry width="50" height="50" relative="1" as="geometry">
            <mxPoint x="400" y="400" as="sourcePoint" />
            <mxPoint x="450" y="350" as="targetPoint" />
            <Array as="points">
              <mxPoint x="340" y="71" />
            </Array>
          </mxGeometry>
        </mxCell>
        <mxCell id="4VESijn2sR6YKoD569hc-58" value="" style="endArrow=classic;html=1;rounded=0;entryX=0.5;entryY=0;entryDx=0;entryDy=0;exitX=1.042;exitY=0.633;exitDx=0;exitDy=0;exitPerimeter=0;" edge="1" parent="1" source="4VESijn2sR6YKoD569hc-53" target="4VESijn2sR6YKoD569hc-33">
          <mxGeometry width="50" height="50" relative="1" as="geometry">
            <mxPoint x="760" y="70" as="sourcePoint" />
            <mxPoint x="450" y="350" as="targetPoint" />
            <Array as="points">
              <mxPoint x="1200" y="70" />
            </Array>
          </mxGeometry>
        </mxCell>
      </root>
    </mxGraphModel>
  </diagram>
</mxfile>
